<svg xmlns="http://www.w3.org/2000/svg" width="23" height="19" viewBox="0 0 23 19">
    <path fill="#FFD902" fill-rule="nonzero" d="M20.462 4.275c.947-.99 1.573-2.06 1.674-2.868.031-.261.004-.472-.077-.637a.498.498 0 0 0-.076-.126.523.523 0 0 0-.095-.095c-.147-.127-.346-.203-.608-.235-.805-.098-1.996.25-3.185.93-.962.552-1.956 1.371-3.333 2.507-.233.192-.479.395-.739.607L11.75 3.36l.008-.006a.53.53 0 0 0 .09-.746l-.374-.479a.535.535 0 0 0-.749-.093l-.716.56-.325-.142a.52.52 0 0 0 .15-.308.524.524 0 0 0-.107-.395L9.35 1.27a.534.534 0 0 0-.747-.091l-.657.513L5.633.678a.64.64 0 0 0-.635.08l-.947.74a.501.501 0 0 0-.191.33c-.025.181.054.36.204.466l4.702 3.44a.887.887 0 0 1 .111.108l1.263 1.616C8.62 8.71 7.25 9.937 6.17 11.017c-.1.1-.197.198-.291.296l-3.862-.834a.726.726 0 0 0-.575.128L1 10.952a.484.484 0 0 0 .036.806L3.624 13.4a.647.647 0 0 1 .096.088l.2.254a1.68 1.68 0 0 0-.175.515.698.698 0 0 0 .13.53l.008.01.003.002a.7.7 0 0 0 .482.251c.15.016.327.002.537-.044l.203.26a.63.63 0 0 1 .06.111l.965 2.902c.058.184.216.319.403.342h.002c.13.016.26-.02.365-.104l.453-.355a.724.724 0 0 0 .256-.508l.126-3.963c.117-.068.235-.137.357-.21 1.311-.79 2.833-1.82 4.413-2.991l1.263 1.618c.02.025.067.104.079.135l2.196 5.385a.493.493 0 0 0 .771.212l.955-.745a.65.65 0 0 0 .225-.59l-.424-2.49.657-.515a.533.533 0 0 0 .093-.746l-.377-.481a.534.534 0 0 0-.693-.13l-.059-.348.717-.56a.537.537 0 0 0 .092-.748l-.375-.48a.534.534 0 0 0-.75-.092l-.004.004-.418-2.448c.273-.203.532-.396.78-.577 1.429-1.058 2.46-1.822 3.226-2.62z"/>
</svg>
