<svg xmlns="http://www.w3.org/2000/svg" width="142" height="137" viewBox="0 0 142 137">
    <g fill="none" fill-rule="nonzero">
        <g fill="#FFD902">
            <path d="M112.022 71.822a28.671 28.671 0 0 1-8.952 1.404c-3.159 0-6.142-.468-9.01-1.404l9.01 8.951 8.952-8.951z"/>
            <path d="M103.07 89.08L84.35 70.301h-1.755v29.64h40.951v-29.64h-1.755zM65.044 79.076v20.866h11.7v-29.64H73.82a8.763 8.763 0 0 0-8.775 8.774zM132.321 70.301h-2.925v29.64h11.7V79.077a8.763 8.763 0 0 0-8.775-8.775zM121.44 23.675c-.526-.76-1.17-1.463-1.814-2.107-4.27-4.211-10.12-6.844-16.556-6.844-11.934 0-21.762 8.95-23.225 20.476h23.225c7.84 0 14.977-4.564 18.37-11.525z"/>
            <path d="M103.07 41.05h-23.4v2.925c0 12.929 10.471 23.4 23.4 23.4 7.372 0 13.982-3.393 18.253-8.775h-9.477v-2.925c-2.516 1.93-5.558 2.925-8.776 2.925-3.918 0-7.605-1.52-10.355-4.27l4.154-4.154c3.335 3.335 9.068 3.335 12.402 0l2.575 2.574h12.87c1.17-2.691 1.755-5.675 1.755-8.775v-5.85c0-3.043-.585-5.909-1.696-8.542-4.856 7.02-12.988 11.467-21.705 11.467z"/>
            <path d="M103.07.098c-20.944 0-38.026 17.083-38.026 38.027v5.85a8.763 8.763 0 0 0 8.775 8.775h1.286c-.818-2.809-1.286-5.734-1.286-8.775v-5.85c0-3.043.469-5.968 1.286-8.775H73.82c-.585 0-1.17.058-1.696.175C75.867 15.952 88.328 5.948 103.07 5.948c14.743 0 27.204 10.004 30.948 23.577a7.954 7.954 0 0 0-1.697-.175h-1.286c.819 2.807 1.286 5.732 1.286 8.775V52.75a8.763 8.763 0 0 0 8.775-8.775v-5.85c0-20.944-17.081-38.027-38.026-38.027z"/>
        </g>
        <g fill="#3C3C3C">
            <path d="M70 95H46a2 2 0 0 0-2 2v8a2 2 0 0 0 2 2h24a2 2 0 0 0 2-2v-8a2 2 0 0 0-2-2zm-2 8H48v-4h20v4z"/>
            <path d="M47.414 25.586l-8-8A2 2 0 0 0 38 17H2a2 2 0 0 0-2 2v52a2 2 0 0 0 2 2h11.172L20 79.828V135a2 2 0 0 0 2 2h72a2 2 0 0 0 2-2V63a2 2 0 0 0-2-2H48V27a2 2 0 0 0-.586-1.414zm11.352 45.566a2 2 0 0 0-2.18.434L48 80.172V65h20v18h-8V73a2 2 0 0 0-1.234-1.848zM14 69H4V21h33.172L44 27.828V69H32a2 2 0 0 0-2 2v13.172L15.414 69.586A2 2 0 0 0 14 69zm78 64H24V83.828l6.586 6.586A2.002 2.002 0 0 0 34 89V73h10v12a2 2 0 0 0 3.414 1.414L56 77.828V85a2 2 0 0 0 2 2h12a2 2 0 0 0 2-2V65h20v68z"/>
            <path d="M8 31h16v4H8zM28 31h6v4h-6zM8 41h30v4H8zM8 51h30v4H8z"/>
        </g>
    </g>
</svg>
