<svg xmlns="http://www.w3.org/2000/svg" width="126" height="127" viewBox="0 0 126 127">
    <g fill="none" fill-rule="nonzero">
        <g fill="#FFD902">
            <path d="M102.55 24H96.7v5.85h-5.85V24H85v17.55h17.55z"/>
            <path d="M93.176 0C75.45 0 61 14.45 61 32.177c0 6.084 1.697 11.993 4.973 17.14l27.203 39.958 27.204-39.957c3.276-5.148 4.972-11.057 4.972-17.141C125.352 14.45 110.903 0 93.176 0zm14.626 46.802H78.55V17.551h29.25v29.251zM67 94h52.652v6.24H67z"/>
        </g>
        <g fill="#3C3C3C">
            <path d="M21.599 58.142V125a2 2 0 0 0 2 2h72a2 2 0 0 0 2-2V58.142l18.526 20.21 2.948-2.704-22-24h-.01A1.984 1.984 0 0 0 95.6 51h-72a1.983 1.983 0 0 0-1.464.658h-.01l-22 24 2.948 2.704L21.6 58.142zm4 64.858V63.772l6.132 15.946A1.997 1.997 0 0 0 33.6 81h52a1.998 1.998 0 0 0 1.868-1.282l6.132-15.946V123h-68zm.912-68h66.176l-8.462 22H34.973L26.51 55z"/>
            <path d="M71.599 85h-24a2 2 0 0 0-2 2v8a2 2 0 0 0 2 2h24a2 2 0 0 0 2-2v-8a2 2 0 0 0-2-2zm-2 8h-20v-4h20v4zM59.599 47c11.046 0 20-8.954 20-20s-8.954-20-20-20c-11.045 0-20 8.954-20 20 .012 11.041 8.96 19.988 20 20zm0-36c8.837 0 16 7.163 16 16s-7.163 16-16 16c-8.836 0-16-7.163-16-16 .01-8.832 7.168-15.99 16-16z"/>
            <path d="M57.599 37a2 2 0 0 0 1.414-.586l12-12-2.828-2.828-10.586 10.586-6.586-6.586-2.828 2.828 8 8a2 2 0 0 0 1.414.586z"/>
        </g>
    </g>
</svg>
