<svg xmlns="http://www.w3.org/2000/svg" width="149" height="131" viewBox="0 0 149 131">
    <g fill="none" fill-rule="evenodd">
        <g fill="#FFD902">
            <path d="M60.994 67.049v21.136l35.1 11.7V70.316l-6.555 6.671zM101.945 70.316v29.57l35.102-11.7V67.048l-28.545 9.938zM113.646 47.702l20.358-6.26-20.358-6.786z"/>
            <path d="M148.942 56.71l-9.79-10.706L99.02 58.291 59.12 45.771 49.098 56.71l38.865 13.533L99.02 58.992l11.057 11.252z"/>
            <path d="M84.394 34.773L64.27 41.266l20.124 6.318zM90.245 49.406l8.798 2.761 8.753-2.68V23.481h8.775L99.02.086 81.47 23.48h8.775z"/>
        </g>
        <g fill="#3C3C3C" fill-rule="nonzero">
            <path d="M112 45h-.2a10.016 10.016 0 0 0-9.8-8H78.928l-21.4-25.292c-.38-.45-.94-.708-1.528-.708H42a1.999 1.999 0 0 0-1.976 2.304L43.668 37H19.236L11.8 22.106A2 2 0 0 0 10 21H2a2 2 0 0 0-2 2v28a2 2 0 0 0 1.188 1.828l18 8c.255.113.533.172.812.172h2.8L44 101.492V129a2 2 0 0 0 2 2h28a2 2 0 0 0 2-2v-27.508L97.21 61H112a8 8 0 0 0 0-16zM44.332 15h10.74l18.616 22H47.716l-3.384-22zM8.764 25l6 12H4V25h4.764zM72 127H48v-24h6v10a2 2 0 0 0 2 2h8a2 2 0 0 0 2-2v-10h6v24zm-14-24h4v8h-4v-8zm14.8-4H47.21L27.306 61h15.53L40.02 80.716A2.003 2.003 0 0 0 42 83h14a2 2 0 0 0 1.572-.764L74.258 61h18.436L72.8 99zM112 57H77.4l2.172-2.764-3.144-2.472L55.028 79H44.306l3.674-25.716-3.96-.568L43.4 57H20.424L4 49.702V41h98a6 6 0 0 1 6 6 2 2 0 0 0 2 2h2a4 4 0 0 1 0 8z"/>
            <path d="M98 45h4v4h-4zM90 45h4v4h-4zM82 45h4v4h-4zM16 89h18v4H16zM10 81h18v4H10zM4 73h18v4H4z"/>
        </g>
    </g>
</svg>
